{
  "accessors": [
    {
      "bufferView": 2,
      "componentType": 5126,
      "count": 141,
      "max": [
        0.014534284360706806,
        0.05604994297027588,
        0.0944041907787323
      ],
      "min": [
        -0.014188647270202637,
        0.04246920347213745,
        0.04638013243675232
      ],
      "type": "VEC3"
    },
    {
      "bufferView": 2,
      "byteOffset": 1692,
      "componentType": 5126,
      "count": 141,
      "max": [
        0.9999686479568481,
        0.9994961619377136,
        0.9983363151550293
      ],
      "min": [
        -0.9998759627342224,
        -0.7108528017997742,
        -0.737758994102478
      ],
      "type": "VEC3"
    },
    {
      "bufferView": 1,
      "componentType": 5126,
      "count": 141,
      "max": [
        0.55908203125,
        0.809814453125
      ],
      "min": [
        0.445068359375,
        0.59814453125
      ],
      "type": "VEC2"
    },
    {
      "bufferView": 0,
      "componentType": 5125,
      "count": 516,
      "type": "SCALAR"
    },
    {
      "bufferView": 2,
      "byteOffset": 3384,
      "componentType": 5126,
      "count": 6527,
      "max": [
        0.030836109071969986,
        0.05949115753173828,
        0.09844961762428284
      ],
      "min": [
        -0.031055649742484093,
        -0.1125955581665039,
        -0.12240548431873322
      ],
      "type": "VEC3"
    },
    {
      "bufferView": 2,
      "byteOffset": 81708,
      "componentType": 5126,
      "count": 6527,
      "max": [
        0.9995920062065125,
        1.0,
        0.9998739361763
      ],
      "min": [
        -0.9999692440032959,
        -0.9993832111358643,
        -0.9999381303787231
      ],
      "type": "VEC3"
    },
    {
      "bufferView": 1,
      "byteOffset": 1128,
      "componentType": 5126,
      "count": 6527,
      "max": [
        0.99853515625,
        0.7943115234375
      ],
      "min": [
        0.0009698867797851563,
        0.0009765625
      ],
      "type": "VEC2"
    },
    {
      "bufferView": 0,
      "byteOffset": 2064,
      "componentType": 5125,
      "count": 38004,
      "type": "SCALAR"
    }
  ],
  "asset": {
    "extras": {
      "author": "sleazyrick (https://sketchfab.com/sleazyrick)",
      "license": "CC-BY-4.0 (http://creativecommons.org/licenses/by/4.0/)",
      "source": "https://sketchfab.com/3d-models/big-penis-stand-alone-model-1-665214a689f7431b9930b35fe5d073ee",
      "title": "Big Penis Stand Alone Model 1"
    },
    "generator": "Sketchfab-15.31.0",
    "version": "2.0"
  },
  "bufferViews": [
    {
      "buffer": 0,
      "byteLength": 154080,
      "name": "floatBufferViews",
      "target": 34963
    },
    {
      "buffer": 0,
      "byteLength": 53344,
      "byteOffset": 154080,
      "byteStride": 8,
      "name": "floatBufferViews",
      "target": 34962
    },
    {
      "buffer": 0,
      "byteLength": 160032,
      "byteOffset": 207424,
      "byteStride": 12,
      "name": "floatBufferViews",
      "target": 34962
    }
  ],
  "buffers": [
    {
      "byteLength": 367456,
      "uri": "scene.bin"
    }
  ],
  "materials": [
    {
      "name": "MI_Penis_Basic",
      "pbrMetallicRoughness": {
        "metallicFactor": 0.0,
        "roughnessFactor": 0.495455
      }
    },
    {
      "doubleSided": true,
      "name": "penis_skin_white",
      "pbrMetallicRoughness": {
        "baseColorFactor": [
          0.8,
          0.474382,
          0.303917,
          1.0
        ],
        "metallicFactor": 0.0,
        "roughnessFactor": 0.5
      }
    }
  ],
  "meshes": [
    {
      "name": "Object_0",
      "primitives": [
        {
          "attributes": {
            "NORMAL": 1,
            "POSITION": 0,
            "TEXCOORD_0": 2
          },
          "indices": 3,
          "material": 0,
          "mode": 4
        }
      ]
    },
    {
      "name": "Object_1",
      "primitives": [
        {
          "attributes": {
            "NORMAL": 5,
            "POSITION": 4,
            "TEXCOORD_0": 6
          },
          "indices": 7,
          "material": 1,
          "mode": 4
        }
      ]
    }
  ],
  "nodes": [
    {
      "children": [
        1
      ],
      "matrix": [
        1.0,
        0.0,
        0.0,
        0.0,
        0.0,
        2.220446049250313e-16,
        -1.0,
        0.0,
        0.0,
        1.0,
        2.220446049250313e-16,
        0.0,
        0.0,
        0.0,
        0.0,
        1.0
      ],
      "name": "Sketchfab_model"
    },
    {
      "children": [
        2
      ],
      "name": "root"
    },
    {
      "children": [
        3
      ],
      "matrix": [
        1.0,
        0.0,
        0.0,
        0.0,
        0.0,
        2.220446049250313e-16,
        1.0,
        0.0,
        0.0,
        -1.0,
        2.220446049250313e-16,
        0.0,
        0.0,
        0.0,
        0.0,
        1.0
      ],
      "name": "GLTF_SceneRootNode"
    },
    {
      "children": [
        4,
        5
      ],
      "matrix": [
        1.0,
        0.0,
        0.0,
        0.0,
        0.0,
        1.0,
        0.0,
        0.0,
        0.0,
        0.0,
        1.0,
        0.0,
        -4.626910958904773e-05,
        0.925308346748352,
        0.09281939268112183,
        1.0
      ],
      "name": "Penis_Human_0"
    },
    {
      "mesh": 0,
      "name": "Object_4"
    },
    {
      "mesh": 1,
      "name": "Object_5"
    }
  ],
  "scene": 0,
  "scenes": [
    {
      "name": "Sketchfab_Scene",
      "nodes": [
        0
      ]
    }
  ]
}
